<?xml version="1.0" encoding="iso-8859-1"?>
<!-- Generator: Adobe Illustrator 19.0.0, SVG Export Plug-In . SVG Version: 6.00 Build 0)  -->
<svg version="1.1" id="Capa_1" class="svg" xmlns="http://www.w3.org/2000/svg" xmlns:xlink="http://www.w3.org/1999/xlink" x="0px" y="0px"
	 viewBox="0 0 469.333 469.333" style="enable-background:new 0 0 469.333 469.333;" xml:space="preserve">
	  <style>
	.svg{
	  stroke: lightsteelblue;
	  stroke-width: 1;
	  fill:#1c9895;
	  width:58px;height:58px
	  }
	 .svg{
	 	fill:#ffffff;
	 }
</style>
<g>
	<g>
		<path d="M352,234.667c-64.693,0-117.333,52.64-117.333,117.333S287.307,469.333,352,469.333S469.333,416.693,469.333,352
			S416.693,234.667,352,234.667z M352,448c-52.939,0-96-43.072-96-96c0-52.928,43.061-96,96-96c52.939,0,96,43.072,96,96
			C448,404.928,404.939,448,352,448z"/>
	</g>
</g>
<g>
	<g>
		<path d="M405.216,307.861c-11.787-13.088-30.475-15.093-44.437-4.843c-0.512,0.384-0.992,0.8-1.429,1.269l-7.168,7.573
			l-7.147-7.573c-0.448-0.459-0.928-0.885-1.44-1.269c-13.973-10.261-32.661-8.235-44.448,4.843
			c-11.264,12.501-13.024,31.456-4.277,46.112c0.437,0.747,0.981,1.44,1.589,2.048l47.989,48.299
			c2.005,2.016,4.469,3.52,7.563,3.147c2.827,0,5.547-1.12,7.541-3.125l48.32-48.299c0.629-0.619,1.163-1.323,1.611-2.069
			C418.229,339.328,416.469,320.363,405.216,307.861z M391.755,342.005l-39.701,39.68l-39.413-39.659
			c-3.221-6.379-2.283-14.731,2.379-19.893c4.16-4.608,10.336-5.557,15.285-2.4l14.133,14.976c2.016,2.133,4.821,3.339,7.765,3.339
			c2.944,0,5.739-1.205,7.755-3.339l14.155-14.987c4.971-3.157,11.136-2.219,15.285,2.4
			C394.016,327.296,394.965,335.637,391.755,342.005z"/>
	</g>
</g>
<g>
	<g>
		<path d="M458.667,42.667H277.333C277.333,19.136,258.197,0,234.667,0S192,19.136,192,42.667H10.667
			C4.768,42.667,0,47.445,0,53.333v85.333v320c0,5.888,4.768,10.667,10.667,10.667H256V448H21.333V149.333H448V256h21.333V138.667
			V53.333C469.333,47.445,464.565,42.667,458.667,42.667z M234.667,21.333c11.765,0,21.333,9.568,21.333,21.333h-42.667
			C213.333,30.901,222.901,21.333,234.667,21.333z M448,128H21.333V64h181.333h64H448V128z"/>
	</g>
</g>
<g>
	<g>
		<rect x="64" y="192" width="21.333" height="21.333"/>
	</g>
</g>
<g>
	<g>
		<rect x="128" y="192" width="21.333" height="21.333"/>
	</g>
</g>
<g>
	<g>
		<rect x="192" y="192" width="21.333" height="21.333"/>
	</g>
</g>
<g>
	<g>
		<rect x="64" y="256" width="21.333" height="21.333"/>
	</g>
</g>
<g>
	<g>
		<rect x="128" y="256" width="21.333" height="21.333"/>
	</g>
</g>
<g>
	<g>
		<rect x="192" y="256" width="21.333" height="21.333"/>
	</g>
</g>
<g>
	<g>
		<rect x="64" y="320" width="21.333" height="21.333"/>
	</g>
</g>
<g>
	<g>
		<rect x="128" y="320" width="21.333" height="21.333"/>
	</g>
</g>
<g>
	<g>
		<rect x="192" y="320" width="21.333" height="21.333"/>
	</g>
</g>
<g>
	<g>
		<rect x="64" y="384" width="21.333" height="21.333"/>
	</g>
</g>
<g>
	<g>
		<rect x="128" y="384" width="21.333" height="21.333"/>
	</g>
</g>
<g>
	<g>
		<rect x="192" y="384" width="21.333" height="21.333"/>
	</g>
</g>
<g>
	<g>
		<rect x="256" y="192" width="21.333" height="21.333"/>
	</g>
</g>
<g>
	<g>
		<rect x="320" y="192" width="21.333" height="21.333"/>
	</g>
</g>
<g>
	<g>
		<rect x="384" y="192" width="21.333" height="21.333"/>
	</g>
</g>
<g>
	<g>
		<rect x="85.333" y="85.333" width="21.333" height="21.333"/>
	</g>
</g>
<g>
	<g>
		<rect x="362.667" y="85.333" width="21.333" height="21.333"/>
	</g>
</g>
<g>
</g>
<g>
</g>
<g>
</g>
<g>
</g>
<g>
</g>
<g>
</g>
<g>
</g>
<g>
</g>
<g>
</g>
<g>
</g>
<g>
</g>
<g>
</g>
<g>
</g>
<g>
</g>
<g>
</g>
</svg>
