<?xml version="1.0" encoding="iso-8859-1"?>
<!-- Generator: Adobe Illustrator 19.0.0, SVG Export Plug-In . SVG Version: 6.00 Build 0)  -->
<svg version="1.1" id="Layer_1" class="svg" xmlns="http://www.w3.org/2000/svg" xmlns:xlink="http://www.w3.org/1999/xlink" x="0px" y="0px"
	 viewBox="0 0 512 512" style="enable-background:new 0 0 512 512;" xml:space="preserve">
	  <style>
	.svg{
	  stroke: lightsteelblue;
	  stroke-width: 1;
	  fill:#1c9895;
	  width:58px;height:58px
	  }
	 .svg{
	 	fill:#ffffff;
	 }
</style>
<g>
	<g>
		<path d="M372.853,23.594C341.774,7.594,306.681,0,271.853,0C161.063,0,52.618,76.766,82.173,204.133l-19.469,23.555
			l-34.406,62.984l33.469,26.609l-1.383,44.734l13.367,19.172c0,0-15.93,59.844,8.422,68.328c22.883,8,47.82,9.969,66.922,9.969
			c18.812,0,31.977-1.906,31.977-1.906L183.728,512H409.65c0,0-22.344-112.828,11.594-160.766
			C455.212,303.297,565.962,123.008,372.853,23.594z M101.563,134.601c4.024-18.304,12.102-35.195,24.016-50.187
			c15.352-19.32,37.109-35.359,62.922-46.391c25.555-10.922,54.375-16.688,83.352-16.688c32.703,0,64.266,7.336,91.234,21.227
			c28.266,14.555,50.781,31.656,66.938,50.828c13.922,16.523,23.453,35.031,28.344,55.008c7.422,30.43,4.531,65-8.609,102.867
			c-4.031-6.031-9.891-12.852-19.125-19.117l-28.766-43.125l33.438-13.844l-48.891-32.75l25.578-25.586l-57.688-11.539l13.844-33.43
			l-57.734,11.422V47.109l-48.97,32.641l-13.844-33.43l-32.75,48.898l-25.586-25.586l-11.539,57.703l-33.43-13.844l11.422,57.727
			h-28.984c-16.445-13.492-23.93-26.203-26.281-30.812C100.782,138.461,101.142,136.515,101.563,134.601z M176.642,167.078
			l-3.68-18.625l20.594,8.531l5.094-25.461l3.719-18.617l15.766,15.758l14.445-21.578l10.57-15.773l8.523,20.594L273.282,97.5
			l15.797-10.531v22.297l25.477-5.039l18.625-3.688l-8.531,20.594l25.469,5.094l18.609,3.719l-15.766,15.766l21.594,14.445
			l15.766,10.562l-20.594,8.531l14.391,21.609l10.547,15.797H392.4c-19.875-4.453-46.188-6.453-81.328-3.961
			c-70.821,5.016-118.407-6.234-149.344-20.14h19.953L176.642,167.078z M381.399,450.422c0.594,15.141,1.969,29.109,3.375,40.25
			H204.048l-1.672-34.156l-1.117-23.453l-23.242,3.391c-0.117,0.016-12.086,1.703-28.922,1.703c-15.32,0-37.562-1.422-57.805-8.078
			c-0.914-2.719-2.039-9.625-0.695-22.234c1.211-11.375,3.758-21.109,3.773-21.172l2.547-9.562l-5.664-8.125l-9.328-13.375
			l1.172-37.672l0.328-10.703l-8.383-6.656l-19.414-15.438l24.82-45.43l18.172-21.984l6.719-8.141l-2.383-10.273
			c-1.961-8.438-3.25-16.719-3.891-24.812c6.578,7.055,15.164,14.75,26.219,22.203c5.82,3.93,12.008,7.57,18.516,10.914l0.43,0.641
			l1.984,0.586c15.086,7.5,31.898,13.461,50.258,17.789c33.695,7.945,72.758,10.414,116.117,7.336
			c44.312-3.141,77.594,0.781,98.875,11.641c16.062,8.188,21.312,18.188,25.156,25.469c1.031,1.984,1.969,3.781,3.062,5.406
			c-12.5,27.781-27.312,50.375-35.844,62.406C386.993,362.703,379.431,400.234,381.399,450.422z"/>
	</g>
</g>
<g>
</g>
<g>
</g>
<g>
</g>
<g>
</g>
<g>
</g>
<g>
</g>
<g>
</g>
<g>
</g>
<g>
</g>
<g>
</g>
<g>
</g>
<g>
</g>
<g>
</g>
<g>
</g>
<g>
</g>
</svg>
